<svg xmlns="http://www.w3.org/2000/svg" version="1.1" width="1280" height="720">
<rect x="0" y="0" width="1280" height="720" fill="#d4dfdc" />
<g transform="scale(5.000000) translate(0.5 0.5)">
<polygon fill="#000000" fill-opacity="0.501961" points="134,6 213,-16 271,6" />
<polygon fill="#000000" fill-opacity="0.501961" points="173,72 174,105 115,89" />
<polygon fill="#000000" fill-opacity="0.501961" points="32,-16 -16,6 77,6" />
<polygon fill="#00baa4" fill-opacity="0.501961" points="252,52 154,39 271,21" />
<polygon fill="#000000" fill-opacity="0.501961" points="126,35 150,11 120,15" />
<polygon fill="#ffffff" fill-opacity="0.501961" points="11,159 -16,86 271,112" />
<polygon fill="#ffffff" fill-opacity="0.501961" points="132,8 -8,144 -16,6" />
<polygon fill="#000000" fill-opacity="0.501961" points="145,4 207,-16 271,6" />
<polygon fill="#00bcac" fill-opacity="0.501961" points="149,49 130,32 87,48" />
<polygon fill="#ffffff" fill-opacity="0.501961" points="262,159 271,47 146,53" />
<polygon fill="#020000" fill-opacity="0.501961" points="176,75 149,106 147,74" />
<polygon fill="#000000" fill-opacity="0.501961" points="-16,6 57,-16 66,4" />
<polygon fill="#00c5b6" fill-opacity="0.501961" points="168,35 271,52 264,24" />
<polygon fill="#ffffff" fill-opacity="0.501961" points="123,51 145,116 148,59" />
<polygon fill="#000000" fill-opacity="0.501961" points="172,1 128,-16 68,-1" />
<polygon fill="#3c3334" fill-opacity="0.501961" points="50,83 64,100 75,82" />
<polygon fill="#000000" fill-opacity="0.501961" points="123,17 146,13 130,33" />
<polygon fill="#070000" fill-opacity="0.501961" points="86,139 94,130 84,129" />
<polygon fill="#af5700" fill-opacity="0.501961" points="113,86 134,75 132,102" />
<polygon fill="#ffffff" fill-opacity="0.501961" points="196,31 270,6 162,7" />
<polygon fill="#000000" fill-opacity="0.501961" points="148,100 173,101 173,79" />
<polygon fill="#fffdf5" fill-opacity="0.501961" points="-16,50 135,39 102,7" />
<polygon fill="#00ccbd" fill-opacity="0.501961" points="254,24 271,48 184,47" />
<polygon fill="#fffefd" fill-opacity="0.501961" points="-16,50 112,88 204,48" />
<polygon fill="#fffffb" fill-opacity="0.501961" points="199,159 271,102 107,101" />
<polygon fill="#ff7600" fill-opacity="0.501961" points="55,37 48,31 72,32" />
<polygon fill="#8d6569" fill-opacity="0.501961" points="179,37 167,12 206,49" />
<polygon fill="#eaf9f7" fill-opacity="0.501961" points="158,7 140,41 208,56" />
<polygon fill="#00d1c1" fill-opacity="0.501961" points="107,43 82,52 65,46" />
<polygon fill="#221f04" fill-opacity="0.501961" points="124,134 123,126 114,136" />
</g>
</svg>